HIERARCHY
ROOT Hips
{
	OFFSET 0.00000 0.00000 0.00000
	CHANNELS 6 Xposition Yposition Zposition Zrotation Yrotation Xrotation 
	JOINT LHipJoint
	{
		OFFSET 0 0 0
		CHANNELS 3 Zrotation Yrotation Xrotation
		JOINT LeftHip
		{
			OFFSET 1.58895 -1.83665 0.71753
			CHANNELS 3 Zrotation Yrotation Xrotation
			JOINT LeftKnee
			{
				OFFSET 2.50528 -6.88321 0.00000
				CHANNELS 3 Zrotation Yrotation Xrotation
				JOINT LeftAnkle
				{
					OFFSET 2.63244 -7.23257 0.00000
					CHANNELS 3 Zrotation Yrotation Xrotation
					JOINT LeftToe
					{
						OFFSET 0.23691 -0.65090 1.72750
						CHANNELS 3 Zrotation Yrotation Xrotation
						End Site
						{
							OFFSET 0.00000 -0.00000 0.92561
						}
					}
				}
			}
		}
	}
	JOINT RHipJoint
	{
		OFFSET 0 0 0
		CHANNELS 3 Zrotation Yrotation Xrotation
		JOINT RightHip
		{
			OFFSET -1.51435 -1.83665 0.71753
			CHANNELS 3 Zrotation Yrotation Xrotation
			JOINT RightKnee
			{
				OFFSET -2.54551 -6.99375 0.00000
				CHANNELS 3 Zrotation Yrotation Xrotation
				JOINT RightAnkle
				{
					OFFSET -2.66027 -7.30903 0.00000
					CHANNELS 3 Zrotation Yrotation Xrotation
					JOINT RightToe
					{
						OFFSET -0.22981 -0.63138 2.03959
						CHANNELS 3 Zrotation Yrotation Xrotation
						End Site
						{
							OFFSET -0.00000 -0.00000 1.07060
						}
					}
				}
			}
		}
	}
	JOINT lowerback
	{
		OFFSET 0 0 0
		CHANNELS 3 Zrotation Yrotation Xrotation
		JOINT Chest
		{
			OFFSET -0.02651 1.86275 -0.11152
			CHANNELS 3 Zrotation Yrotation Xrotation
			JOINT Chest2
			{
				OFFSET 0.01019 1.86224 0.04087
				CHANNELS 3 Zrotation Yrotation Xrotation
				JOINT lowerneck
				{
					OFFSET 0 0 0
					CHANNELS 3 Zrotation Yrotation Xrotation
					JOINT Neck
					{
						OFFSET -0.01926 1.80512 0.08867
						CHANNELS 3 Zrotation Yrotation Xrotation
						JOINT Head
						{
							OFFSET 0.05516 1.76451 -0.38475
							CHANNELS 3 Zrotation Yrotation Xrotation
							End Site
							{
								OFFSET 0.01592 1.82587 -0.14001
							}
						}
					}
				}
				JOINT LeftCollar
				{
					OFFSET 0 0 0
					CHANNELS 3 Zrotation Yrotation Xrotation
					JOINT LeftShoulder
					{
						OFFSET 3.47116 1.51376 0.14491
CHANNELS 3 Zrotation Xrotation Yrotation
						JOINT LeftElbow
						{
OFFSET 0 -4.780950 0.000000
CHANNELS 3 Zrotation Xrotation Yrotation
							JOINT LeftWrist
							{
OFFSET 0 -3.586150 -0.000000
CHANNELS 3 Zrotation Xrotation Yrotation
								JOINT lhand
								{
									OFFSET 0 0 0
CHANNELS 3 Zrotation Xrotation Yrotation
									JOINT LFingers
									{
OFFSET 0 -0.659810 0.000000
CHANNELS 3 Zrotation Xrotation Yrotation
										End Site
										{
OFFSET 0 -0.531960 0.000000
										}
									}
								}
								JOINT LThumb
								{
OFFSET 0 0.000000 0.000000
CHANNELS 3 Zrotation Xrotation Yrotation
									End Site
									{
OFFSET 0 -0.540080 0.540080
									}
								}
							}
						}
					}
				}
				JOINT RightCollar
				{
					OFFSET 0 0 0
					CHANNELS 3 Zrotation Yrotation Xrotation
					JOINT RightShoulder
					{
						OFFSET -3.31725 1.61216 0.35156
CHANNELS 3 Zrotation Xrotation Yrotation
						JOINT RightElbow
						{
OFFSET 0 -4.489130 0.000000
CHANNELS 3 Zrotation Xrotation Yrotation
							JOINT RightWrist
							{
OFFSET 0 -3.705100 0.000000
CHANNELS 3 Zrotation Xrotation Yrotation
								JOINT rhand
								{
									OFFSET 0 0 0
CHANNELS 3 Zrotation Xrotation Yrotation
									JOINT RFingers
									{
OFFSET 0 -0.449140 0.000000
CHANNELS 3 Zrotation Xrotation Yrotation
										End Site
										{
OFFSET 0 -0.362110 0.000000
										}
									}
								}
								JOINT RThumb
								{
OFFSET 0 0.000000 0.000000
CHANNELS 3 Zrotation Xrotation Yrotation
									End Site
									{
OFFSET 0 -0.367630 0.367630
									}
								}
							}
						}
					}
				}
			}
		}
	}
}
MOTION
Frames: 6
Frame Time: 0.008333333333333333
-0.374200 18.512152 3.740776 -1.107515 1.711917 5.376415 0.000000 0.000000 0.000000 -11.827043 -6.928069 -23.050699 3.100728 10.855212 31.794338 0.781953 -0.273562 -16.623076 8.429068 -16.425935 -54.093773 0.000000 0.000000 0.000000 13.158669 4.618263 -12.990008 -1.007143 -6.377591 17.886777 -1.008383 -4.063607 -20.850931 -0.150924 2.502141 -6.895661 2.672882 -0.978225 26.528013 1.949316 -0.313163 5.041418 0.736680 -0.192070 -9.103426 -2.827112 -1.587867 -22.809121 2.806726 -1.654228 6.500970 1.170755 -0.652438 5.631234 0.000000 0.000000 0.000000 6.040055 -56.308226 -59.507446 21.010490 -31.837753 6.056830 26.197412 -19.405120 35.571031 0.000000 0.000000 0.000000 -7.125000 0.000000 0.000000 -3.836239 -8.545909 -4.338004 0.000000 0.000000 0.000000 -12.506686 -54.238438 44.673081 -21.107296 -31.951251 -6.107650 -44.184778 55.104974 32.111809 0.000000 0.000000 0.000000 7.125000 0.000000 0.000000 -19.751182 70.266896 12.080117
-0.373249 18.441207 3.631888 -0.737625 1.535021 5.846860 0.000000 0.000000 0.000000 -12.023395 -7.025833 -24.833178 3.387422 11.295708 33.285680 0.797259 -0.662506 -16.663220 8.449525 -16.440118 -54.166089 0.000000 0.000000 0.000000 12.492443 5.094962 -15.540335 -1.371626 -7.401887 20.916206 -1.083243 -2.964633 -20.939928 -0.184220 2.763146 -7.620106 2.194105 -0.947690 27.131861 1.886948 -0.394221 5.225283 0.976733 -0.217827 -9.201031 -2.788711 -1.501489 -23.162033 2.942979 -1.556597 6.376541 1.219008 -0.589906 5.642566 0.000000 0.000000 0.000000 -0.114897 -57.081797 -57.098331 19.826041 -30.430484 5.443842 35.609283 -24.168618 38.315841 0.000000 0.000000 0.000000 -7.125000 0.000000 0.000000 0.416508 -14.243116 0.530393 0.000000 0.000000 0.000000 -7.158230 -55.439066 44.469139 -20.201359 -30.883812 -5.634526 -44.844142 57.233782 31.948501 0.000000 0.000000 0.000000 7.125000 0.000000 0.000000 -20.986435 70.291195 12.865792
-0.369628 18.375016 3.544766 -0.318792 1.372541 6.061398 0.000000 0.000000 0.000000 -12.350651 -6.940291 -26.198317 3.652854 11.682839 34.619930 0.813318 -1.126368 -16.697621 8.485719 -16.465124 -54.293941 0.000000 0.000000 0.000000 11.791371 5.538144 -17.424309 -1.715748 -8.243551 23.458187 -1.149350 -2.083796 -21.103645 -0.212511 2.967194 -8.187608 1.919319 -0.970631 27.649787 1.642561 -0.514279 5.439641 0.907986 -0.269009 -9.220101 -2.707370 -1.435250 -23.460816 3.248297 -1.523214 6.335941 1.308492 -0.543166 5.676324 0.000000 0.000000 0.000000 -6.040342 -56.963306 -54.854674 19.604454 -30.162851 5.331202 39.646193 -25.501192 39.191121 0.000000 0.000000 0.000000 -7.125000 0.000000 0.000000 2.188703 -16.630605 2.726258 0.000000 0.000000 0.000000 -2.181864 -55.173810 44.827358 -20.410822 -31.133687 -5.742486 -45.293207 58.259030 31.311018 0.000000 0.000000 0.000000 7.125000 0.000000 0.000000 -21.708086 69.715344 13.046994
-0.362055 18.313734 3.480858 -0.046020 1.365170 6.015728 0.000000 0.000000 0.000000 -12.572515 -6.917754 -27.085631 3.889050 12.010932 35.771288 0.834290 -1.592979 -16.793721 8.487239 -16.466142 -54.299311 0.000000 0.000000 0.000000 11.292890 5.788789 -18.645984 -2.011837 -8.889023 25.449787 -1.209206 -1.412224 -21.331788 -0.230826 3.091682 -8.534152 2.017367 -1.070878 28.088628 1.377967 -0.632203 5.616630 0.600626 -0.328687 -9.243331 -2.585356 -1.406001 -23.596885 3.433873 -1.545759 6.525269 1.346962 -0.532869 5.760107 0.000000 0.000000 0.000000 -9.695958 -55.634706 -53.715378 20.737833 -31.511164 5.916895 38.353966 -24.847184 38.937328 0.000000 0.000000 0.000000 -7.125000 0.000000 0.000000 1.626614 -15.862859 2.011815 0.000000 0.000000 0.000000 0.065165 -53.584590 46.044195 -21.728233 -32.663874 -6.440632 -45.833293 57.761560 31.099479 0.000000 0.000000 0.000000 7.125000 0.000000 0.000000 -22.695494 69.645784 13.629907
-0.353985 18.260059 3.436490 -0.215527 1.399930 5.750219 0.000000 0.000000 0.000000 -12.342667 -6.828862 -27.551311 4.076230 12.260633 36.661052 0.853095 -1.962027 -16.899757 8.483505 -16.463604 -54.286168 0.000000 0.000000 0.000000 11.355714 6.027104 -19.311255 -2.260063 -9.386249 27.012432 -1.270365 -0.946487 -21.664456 -0.263521 3.301044 -9.118090 2.491086 -1.203094 28.584121 1.324954 -0.652877 5.657232 0.282752 -0.351435 -9.449329 -2.432579 -1.349845 -23.507508 3.295711 -1.510075 6.940565 1.282530 -0.521875 5.877551 0.000000 0.000000 0.000000 -7.986201 -53.279932 -54.977222 23.710481 -34.824191 7.554295 36.264681 -28.423020 38.196125 0.000000 0.000000 0.000000 -7.125000 0.000000 0.000000 0.800524 -14.317256 0.974535 0.000000 0.000000 0.000000 -0.778499 -51.357868 48.541628 -23.674583 -34.806020 -7.525159 -47.020648 56.052821 31.701890 0.000000 0.000000 0.000000 7.125000 0.000000 0.000000 -25.311819 70.691943 15.861516
-0.347504 18.218732 3.428849 0.457236 1.735584 4.973994 0.000000 0.000000 0.000000 -13.195787 -6.732671 -27.144530 4.220907 12.448556 37.338082 0.880652 -2.431074 -17.079803 8.520465 -16.488974 -54.416330 0.000000 0.000000 0.000000 10.597818 5.467032 -19.167465 -2.452588 -9.750586 28.173224 -1.325083 -0.313608 -21.887038 -0.300701 3.525130 -9.744390 2.008309 -1.299776 28.967065 1.253299 -0.913384 5.813064 0.578237 -0.459018 -9.459643 -2.450055 -1.290844 -23.318239 3.027808 -1.408419 7.602003 1.210979 -0.495672 6.057961 0.000000 0.000000 0.000000 -4.479041 -50.309133 -56.332743 27.698583 -38.814340 9.943146 36.001516 -33.054329 38.233132 0.000000 0.000000 0.000000 -7.125000 0.000000 0.000000 0.657506 -14.259152 0.799312 0.000000 0.000000 0.000000 -3.184020 -48.701287 51.572670 -26.405606 -37.594173 -9.138923 -48.404995 53.583304 32.570926 0.000000 0.000000 0.000000 7.125000 0.000000 0.000000 -28.740665 72.082231 18.960955
